<svg width="25" height="24" viewBox="0 0 25 24" fill="none" xmlns="http://www.w3.org/2000/svg">
<path d="M14.4231 1.84615C14.4231 0.825 13.5637 0 12.5 0C11.4363 0 10.5769 0.825 10.5769 1.84615V10.1538H1.92308C0.859375 10.1538 0 10.9788 0 12C0 13.0212 0.859375 13.8462 1.92308 13.8462H10.5769V22.1538C10.5769 23.175 11.4363 24 12.5 24C13.5637 24 14.4231 23.175 14.4231 22.1538V13.8462H23.0769C24.1406 13.8462 25 13.0212 25 12C25 10.9788 24.1406 10.1538 23.0769 10.1538H14.4231V1.84615Z" fill="white"/>
</svg>
