<svg width="24" height="19" viewBox="0 0 24 19" fill="none" xmlns="http://www.w3.org/2000/svg">
<path d="M2.23125 11.2064L10.7016 18.527C11.0531 18.8308 11.5172 19 12 19C12.4828 19 12.9469 18.8308 13.2984 18.527L21.7687 11.2064C23.1937 9.9784 24 8.25566 24 6.45481V6.20313C24 3.16989 21.6328 0.58361 18.4031 0.0845793C16.2656 -0.245215 14.0906 0.401355 12.5625 1.816L12 2.33672L11.4375 1.816C9.90938 0.401355 7.73438 -0.245215 5.59688 0.0845793C2.36719 0.58361 0 3.16989 0 6.20313V6.45481C0 8.25566 0.80625 9.9784 2.23125 11.2064Z" fill="#FF0000"/>
</svg>
