<svg width="51" height="51" viewBox="0 0 51 51" fill="none" xmlns="http://www.w3.org/2000/svg">
<path d="M24.1112 35.0397C22.8703 36.2806 20.844 36.2806 19.6031 35.0397L12.3174 27.754C11.0731 26.5132 11.0731 24.4868 12.3174 23.246C13.5583 22.0051 15.5846 22.0051 16.8254 23.246L21.8571 28.2777L34.1746 15.9603C35.4154 14.7194 37.4417 14.7194 38.6826 15.9603C39.9234 17.2011 39.9234 19.2275 38.6826 20.4683L24.1112 35.0397ZM0 7.28571C0 3.2615 3.2615 0 7.28571 0H43.7143C47.7328 0 51 3.2615 51 7.28571V43.7143C51 47.7328 47.7328 51 43.7143 51H7.28571C3.2615 51 0 47.7328 0 43.7143V7.28571ZM5.46429 7.28571V43.7143C5.46429 44.7161 6.27938 45.5357 7.28571 45.5357H43.7143C44.7161 45.5357 45.5357 44.7161 45.5357 43.7143V7.28571C45.5357 6.27938 44.7161 5.46429 43.7143 5.46429H7.28571C6.27938 5.46429 5.46429 6.27938 5.46429 7.28571Z" fill="white"/>
</svg>
